<?xml version="1.0" standalone="no"?>
<!DOCTYPE svg PUBLIC "-//W3C//DTD SVG 20010904//EN"
 "http://www.w3.org/TR/2001/REC-SVG-20010904/DTD/svg10.dtd">
<svg version="1.0" xmlns="http://www.w3.org/2000/svg"
 width="700.000000pt" height="700.000000pt" viewBox="0 0 700.000000 700.000000"
 preserveAspectRatio="xMidYMid meet">
<metadata>
Created by potrace 1.11, written by Peter Selinger 2001-2013
</metadata>
<g transform="translate(0.000000,700.000000) scale(0.100000,-0.100000)"
fill="#000000" stroke="none">
<path d="M2350 5673 c-42 -4 -215 -31 -250 -38 -14 -3 -37 -7 -51 -10 -108
-20 -382 -119 -489 -177 -206 -112 -301 -178 -445 -305 -324 -286 -543 -635
-660 -1048 -17 -61 -21 -76 -31 -130 -3 -16 -9 -48 -14 -70 -5 -22 -12 -71
-15 -110 -4 -38 -9 -79 -11 -90 -6 -27 -5 -308 0 -369 5 -52 13 -117 20 -151
2 -11 7 -40 11 -65 10 -71 62 -260 95 -351 17 -46 60 -142 95 -214 233 -473
642 -851 1132 -1044 105 -42 318 -105 388 -115 22 -3 51 -8 65 -11 35 -7 93
-14 175 -21 39 -4 511 -7 1050 -8 1084 -1 1034 -4 1108 63 20 19 47 55 59 80
22 45 22 55 24 421 1 206 2 378 3 382 4 23 58 31 229 34 160 2 223 8 367 30
51 8 209 53 277 78 295 111 557 301 750 545 53 66 75 98 123 172 5 9 31 56 57
106 90 174 136 323 175 568 2 17 5 98 5 180 0 304 -81 588 -246 855 -31 49
-62 98 -70 107 -217 269 -377 403 -639 534 -69 35 -213 94 -257 104 -8 3 -42
12 -75 21 -182 49 -117 47 -1565 49 -745 1 -1371 0 -1390 -2z m821 -373 c0
-132 0 -368 0 -525 0 -157 0 -298 0 -314 -1 -31 -3 -32 -146 -70 -95 -25 -447
-212 -640 -339 -94 -62 -104 -67 -160 -68 -52 -1 -138 -7 -240 -19 -113 -12
-153 -17 -175 -21 -14 -2 -50 -6 -80 -10 -30 -3 -75 -10 -100 -16 -25 -5 -58
-12 -74 -15 -54 -9 -215 -62 -270 -89 -66 -32 -101 -63 -146 -129 -19 -27 -55
-69 -81 -93 l-47 -42 5 -73 c3 -39 9 -76 13 -82 5 -5 20 -39 34 -75 51 -124
111 -158 311 -175 94 -8 274 -10 280 -3 3 3 6 32 6 64 l1 59 23 -46 c48 -94
177 -188 280 -205 185 -31 356 49 451 211 8 15 10 10 10 -26 l-1 -44 45 4 c25
2 192 5 373 8 l327 4 1 -338 c1 -869 -2 -1337 -10 -1342 -13 -8 -712 -5 -791
3 -267 27 -456 77 -685 184 -542 250 -945 733 -1101 1316 -28 107 -31 122 -39
181 -3 22 -8 57 -11 77 -23 152 -20 388 6 563 25 161 48 251 104 402 183 497
552 902 1024 1125 125 59 304 123 402 143 8 2 36 8 61 14 52 12 95 18 184 27
33 4 62 8 63 9 2 2 181 4 398 5 l394 1 1 -241z m2009 212 c323 -70 596 -217
820 -442 396 -396 542 -934 400 -1465 -138 -515 -584 -950 -1114 -1086 -84
-22 -94 -24 -161 -34 -22 -3 -53 -8 -70 -11 -16 -3 -115 -7 -220 -8 -212 -4
-257 -13 -306 -60 -62 -60 -62 -63 -64 -479 l-1 -377 -31 -32 -32 -32 -533 -1
c-293 0 -539 1 -545 3 -10 3 -13 181 -13 843 l0 839 513 1 c591 1 569 2 605
-17 15 -8 42 -14 60 -14 33 0 33 0 27 40 -4 25 -2 40 5 40 5 0 10 -4 10 -10 0
-19 75 -93 127 -127 187 -120 428 -68 565 121 l28 39 0 -37 c0 -37 1 -38 33
-32 17 2 48 9 67 15 34 9 69 15 176 26 61 7 192 35 294 64 86 24 112 48 135
125 31 103 14 204 -42 245 -28 21 -29 25 -27 94 5 139 -37 287 -84 301 -9 2
-44 7 -77 11 -33 3 -73 8 -90 10 -16 2 -57 7 -90 10 -139 15 -121 10 -269 80
-358 168 -707 279 -976 311 -25 3 -55 7 -67 10 -42 8 -257 18 -418 18 -199 0
-346 -9 -472 -30 l-33 -5 0 541 0 541 883 -3 c873 -4 883 -4 987 -26z m-1476
-1155 c-1 -12 -10 -53 -19 -92 -9 -38 -18 -74 -19 -80 -32 -150 -48 -201 -64
-201 -105 -4 -588 -21 -807 -29 -202 -7 -194 -13 -90 70 82 66 256 180 335
220 83 41 198 81 275 94 111 19 130 21 220 27 50 4 91 7 92 8 1 1 19 2 41 3
35 1 39 -1 36 -20z m381 8 c75 -6 114 -10 175 -21 14 -2 43 -6 65 -10 22 -3
78 -15 124 -28 84 -22 84 -22 87 -56 6 -88 8 -239 4 -244 -3 -2 -173 -7 -378
-11 l-373 -7 6 59 c3 32 7 74 10 93 3 19 7 67 11 105 4 39 8 77 9 85 2 8 4 23
4 32 1 18 33 18 256 3z m740 -184 c94 -45 98 -51 98 -110 -1 -29 -4 -55 -7
-58 -12 -12 -246 -11 -247 1 0 6 -2 29 -4 51 -3 53 -7 146 -6 167 1 15 6 14
54 -3 28 -11 79 -33 112 -48z"/>
</g>
</svg>
